{
  "accessors": [
    {
      "bufferView": 2,
      "componentType": 5126,
      "count": 65532,
      "max": [
        105.76412963867188,
        92.03652954101563,
        80.35490417480469
      ],
      "min": [
        -86.26884460449219,
        -91.01102447509766,
        -131.69847106933594
      ],
      "type": "VEC3"
    },
    {
      "bufferView": 2,
      "byteOffset": 786384,
      "componentType": 5126,
      "count": 65532,
      "max": [
        0.9999989867210388,
        1.0,
        0.9999992847442627
      ],
      "min": [
        -1.0,
        -0.9997291564941406,
        -1.0
      ],
      "type": "VEC3"
    },
    {
      "bufferView": 1,
      "componentType": 5126,
      "count": 65532,
      "max": [
        0.9506679773330688,
        0.934374988079071
      ],
      "min": [
        0.0007810000097379088,
        0.002741999924182892
      ],
      "type": "VEC2"
    },
    {
      "bufferView": 0,
      "componentType": 5125,
      "count": 365370,
      "type": "SCALAR"
    },
    {
      "bufferView": 2,
      "byteOffset": 1572768,
      "componentType": 5126,
      "count": 65532,
      "max": [
        103.48614501953125,
        86.1109390258789,
        80.3015365600586
      ],
      "min": [
        -49.944732666015625,
        -118.71853637695313,
        -143.8832550048828
      ],
      "type": "VEC3"
    },
    {
      "bufferView": 2,
      "byteOffset": 2359152,
      "componentType": 5126,
      "count": 65532,
      "max": [
        1.0,
        1.0,
        1.0
      ],
      "min": [
        -0.9827621579170227,
        -0.9881170392036438,
        -0.9999999403953552
      ],
      "type": "VEC3"
    },
    {
      "bufferView": 1,
      "byteOffset": 524256,
      "componentType": 5126,
      "count": 65532,
      "max": [
        0.8652780055999756,
        0.6740220189094543
      ],
      "min": [
        0.49531298875808716,
        0.060210999101400375
      ],
      "type": "VEC2"
    },
    {
      "bufferView": 0,
      "byteOffset": 1461480,
      "componentType": 5125,
      "count": 365544,
      "type": "SCALAR"
    },
    {
      "bufferView": 2,
      "byteOffset": 3145536,
      "componentType": 5126,
      "count": 65532,
      "max": [
        36.88614273071289,
        68.00305938720703,
        80.80809783935547
      ],
      "min": [
        -69.41156768798828,
        -113.88224029541016,
        -141.69847106933594
      ],
      "type": "VEC3"
    },
    {
      "bufferView": 2,
      "byteOffset": 3931920,
      "componentType": 5126,
      "count": 65532,
      "max": [
        0.9547713994979858,
        0.9993611574172974,
        1.0
      ],
      "min": [
        -1.0,
        -1.0,
        -0.9887464046478271
      ],
      "type": "VEC3"
    },
    {
      "bufferView": 1,
      "byteOffset": 1048512,
      "componentType": 5126,
      "count": 65532,
      "max": [
        0.9110170006752014,
        0.9629279971122742
      ],
      "min": [
        0.5052760243415833,
        0.43688100576400757
      ],
      "type": "VEC2"
    },
    {
      "bufferView": 0,
      "byteOffset": 2923656,
      "componentType": 5125,
      "count": 333831,
      "type": "SCALAR"
    },
    {
      "bufferView": 2,
      "byteOffset": 4718304,
      "componentType": 5126,
      "count": 65532,
      "max": [
        97.6367416381836,
        31.510940551757813,
        69.4380111694336
      ],
      "min": [
        -55.06258773803711,
        -118.15538024902344,
        -143.0984649658203
      ],
      "type": "VEC3"
    },
    {
      "bufferView": 2,
      "byteOffset": 5504688,
      "componentType": 5126,
      "count": 65532,
      "max": [
        0.9999917149543762,
        0.7465713620185852,
        1.0
      ],
      "min": [
        -0.9805606603622437,
        -1.0,
        -0.9982799291610718
      ],
      "type": "VEC3"
    },
    {
      "bufferView": 1,
      "byteOffset": 1572768,
      "componentType": 5126,
      "count": 65532,
      "max": [
        0.7754719853401184,
        0.9992190003395081
      ],
      "min": [
        0.0007810000097379088,
        0.5618619918823242
      ],
      "type": "VEC2"
    },
    {
      "bufferView": 0,
      "byteOffset": 4258980,
      "componentType": 5125,
      "count": 313617,
      "type": "SCALAR"
    },
    {
      "bufferView": 2,
      "byteOffset": 6291072,
      "componentType": 5126,
      "count": 65532,
      "max": [
        105.23259735107422,
        28.11094093322754,
        69.4380111694336
      ],
      "min": [
        9.88614273071289,
        -115.08906555175781,
        -133.0984649658203
      ],
      "type": "VEC3"
    },
    {
      "bufferView": 2,
      "byteOffset": 7077456,
      "componentType": 5126,
      "count": 65532,
      "max": [
        1.0,
        0.8400271534919739,
        0.9995837211608887
      ],
      "min": [
        -0.5949613451957703,
        -1.0,
        -0.9999998807907104
      ],
      "type": "VEC3"
    },
    {
      "bufferView": 1,
      "byteOffset": 2097024,
      "componentType": 5126,
      "count": 65532,
      "max": [
        0.47941499948501587,
        0.9982680082321167
      ],
      "min": [
        0.008123000152409077,
        0.6946970224380493
      ],
      "type": "VEC2"
    },
    {
      "bufferView": 0,
      "byteOffset": 5513448,
      "componentType": 5125,
      "count": 329517,
      "type": "SCALAR"
    },
    {
      "bufferView": 2,
      "byteOffset": 7863840,
      "componentType": 5126,
      "count": 65532,
      "max": [
        105.78266143798828,
        2.710939884185791,
        68.70153045654297
      ],
      "min": [
        -65.394287109375,
        -116.8890609741211,
        -142.4454345703125
      ],
      "type": "VEC3"
    },
    {
      "bufferView": 2,
      "byteOffset": 8650224,
      "componentType": 5126,
      "count": 65532,
      "max": [
        0.9999999403953552,
        0.997290313243866,
        1.0
      ],
      "min": [
        -0.9988411664962769,
        -1.0,
        -1.0
      ],
      "type": "VEC3"
    },
    {
      "bufferView": 1,
      "byteOffset": 2621280,
      "componentType": 5126,
      "count": 65532,
      "max": [
        0.7872689962387085,
        0.9964590072631836
      ],
      "min": [
        0.011464999988675117,
        0.5484319925308228
      ],
      "type": "VEC2"
    },
    {
      "bufferView": 0,
      "byteOffset": 6831516,
      "componentType": 5125,
      "count": 279120,
      "type": "SCALAR"
    },
    {
      "bufferView": 2,
      "byteOffset": 9436608,
      "componentType": 5126,
      "count": 65532,
      "max": [
        48.88614273071289,
        96.7958755493164,
        80.66175842285156
      ],
      "min": [
        -86.55741882324219,
        -118.8890609741211,
        -143.29847717285156
      ],
      "type": "VEC3"
    },
    {
      "bufferView": 2,
      "byteOffset": 10222992,
      "componentType": 5126,
      "count": 65532,
      "max": [
        0.9999969005584717,
        1.0,
        1.0
      ],
      "min": [
        -1.0,
        -0.9998348355293274,
        -0.9991428256034851
      ],
      "type": "VEC3"
    },
    {
      "bufferView": 1,
      "byteOffset": 3145536,
      "componentType": 5126,
      "count": 65532,
      "max": [
        0.9074850082397461,
        0.9992190003395081
      ],
      "min": [
        0.11146699637174606,
        0.13552600145339966
      ],
      "type": "VEC2"
    },
    {
      "bufferView": 0,
      "byteOffset": 7947996,
      "componentType": 5125,
      "count": 327378,
      "type": "SCALAR"
    },
    {
      "bufferView": 2,
      "byteOffset": 11009376,
      "componentType": 5126,
      "count": 3498,
      "max": [
        29.88614273071289,
        54.51094055175781,
        80.80809783935547
      ],
      "min": [
        -73.11386108398438,
        4.110939979553223,
        35.80062484741211
      ],
      "type": "VEC3"
    },
    {
      "bufferView": 2,
      "byteOffset": 11051352,
      "componentType": 5126,
      "count": 3498,
      "max": [
        0.9970649480819702,
        0.7979726791381836,
        0.9999988675117493
      ],
      "min": [
        -0.9734783172607422,
        -0.8663942217826843,
        -0.8935933113098145
      ],
      "type": "VEC3"
    },
    {
      "bufferView": 1,
      "byteOffset": 3669792,
      "componentType": 5126,
      "count": 3498,
      "max": [
        0.8046489953994751,
        0.6651309728622437
      ],
      "min": [
        0.6639779806137085,
        0.4453980028629303
      ],
      "type": "VEC2"
    },
    {
      "bufferView": 0,
      "byteOffset": 9257508,
      "componentType": 5125,
      "count": 10884,
      "type": "SCALAR"
    }
  ],
  "asset": {
    "extras": {
      "author": "Arkify (https://sketchfab.com/arkify)",
      "license": "CC-BY-4.0 (http://creativecommons.org/licenses/by/4.0/)",
      "source": "https://sketchfab.com/3d-models/garden-baseball-cap-3d-scan-6df6bc7b75d340c0a940b3574d73013d",
      "title": "Garden Baseball Cap 3D Scan"
    },
    "generator": "Sketchfab-13.14.0",
    "version": "2.0"
  },
  "bufferViews": [
    {
      "buffer": 0,
      "byteLength": 9301044,
      "name": "floatBufferViews",
      "target": 34963
    },
    {
      "buffer": 0,
      "byteLength": 3697776,
      "byteOffset": 9301044,
      "byteStride": 8,
      "name": "floatBufferViews",
      "target": 34962
    },
    {
      "buffer": 0,
      "byteLength": 11093328,
      "byteOffset": 12998820,
      "byteStride": 12,
      "name": "floatBufferViews",
      "target": 34962
    }
  ],
  "buffers": [
    {
      "byteLength": 24092148,
      "uri": "scene.bin"
    }
  ],
  "images": [
    {
      "uri": "textures/material_0_baseColor.png"
    }
  ],
  "materials": [
    {
      "doubleSided": true,
      "name": "material_0",
      "pbrMetallicRoughness": {
        "baseColorTexture": {
          "index": 0
        },
        "metallicFactor": 0.0
      }
    }
  ],
  "meshes": [
    {
      "name": "Object_0",
      "primitives": [
        {
          "attributes": {
            "NORMAL": 1,
            "POSITION": 0,
            "TEXCOORD_0": 2
          },
          "indices": 3,
          "material": 0,
          "mode": 4
        }
      ]
    },
    {
      "name": "Object_1",
      "primitives": [
        {
          "attributes": {
            "NORMAL": 5,
            "POSITION": 4,
            "TEXCOORD_0": 6
          },
          "indices": 7,
          "material": 0,
          "mode": 4
        }
      ]
    },
    {
      "name": "Object_2",
      "primitives": [
        {
          "attributes": {
            "NORMAL": 9,
            "POSITION": 8,
            "TEXCOORD_0": 10
          },
          "indices": 11,
          "material": 0,
          "mode": 4
        }
      ]
    },
    {
      "name": "Object_3",
      "primitives": [
        {
          "attributes": {
            "NORMAL": 13,
            "POSITION": 12,
            "TEXCOORD_0": 14
          },
          "indices": 15,
          "material": 0,
          "mode": 4
        }
      ]
    },
    {
      "name": "Object_4",
      "primitives": [
        {
          "attributes": {
            "NORMAL": 17,
            "POSITION": 16,
            "TEXCOORD_0": 18
          },
          "indices": 19,
          "material": 0,
          "mode": 4
        }
      ]
    },
    {
      "name": "Object_5",
      "primitives": [
        {
          "attributes": {
            "NORMAL": 21,
            "POSITION": 20,
            "TEXCOORD_0": 22
          },
          "indices": 23,
          "material": 0,
          "mode": 4
        }
      ]
    },
    {
      "name": "Object_6",
      "primitives": [
        {
          "attributes": {
            "NORMAL": 25,
            "POSITION": 24,
            "TEXCOORD_0": 26
          },
          "indices": 27,
          "material": 0,
          "mode": 4
        }
      ]
    },
    {
      "name": "Object_7",
      "primitives": [
        {
          "attributes": {
            "NORMAL": 29,
            "POSITION": 28,
            "TEXCOORD_0": 30
          },
          "indices": 31,
          "material": 0,
          "mode": 4
        }
      ]
    }
  ],
  "nodes": [
    {
      "children": [
        1
      ],
      "matrix": [
        0.9586842656135559,
        0.04498551413416856,
        0.28089287877082825,
        0.0,
        0.2394663691520691,
        -0.6606289744377135,
        -0.7114950418472291,
        0.0,
        0.15355901420116425,
        0.7493635416030885,
        -0.6441071033477782,
        0.0,
        0.0,
        0.0,
        0.0,
        1.0
      ],
      "name": "Sketchfab_model"
    },
    {
      "children": [
        2,
        3,
        4,
        5,
        6,
        7,
        8,
        9
      ],
      "name": "GardenHat.obj.cleaner.materialmerger.gles"
    },
    {
      "mesh": 0,
      "name": "Object_2"
    },
    {
      "mesh": 1,
      "name": "Object_3"
    },
    {
      "mesh": 2,
      "name": "Object_4"
    },
    {
      "mesh": 3,
      "name": "Object_5"
    },
    {
      "mesh": 4,
      "name": "Object_6"
    },
    {
      "mesh": 5,
      "name": "Object_7"
    },
    {
      "mesh": 6,
      "name": "Object_8"
    },
    {
      "mesh": 7,
      "name": "Object_9"
    }
  ],
  "samplers": [
    {
      "magFilter": 9729,
      "minFilter": 9987,
      "wrapS": 10497,
      "wrapT": 10497
    }
  ],
  "scene": 0,
  "scenes": [
    {
      "name": "Sketchfab_Scene",
      "nodes": [
        0
      ]
    }
  ],
  "textures": [
    {
      "sampler": 0,
      "source": 0
    }
  ]
}
