{
  "accessors": [
    {
      "bufferView": 3,
      "componentType": 5126,
      "count": 7227,
      "max": [
        120.0296859741211,
        149.95982360839844,
        299.83001708984375
      ],
      "min": [
        -120.0296859741211,
        23.873268127441406,
        -294.4342041015625
      ],
      "type": "VEC3"
    },
    {
      "bufferView": 3,
      "byteOffset": 86724,
      "componentType": 5126,
      "count": 7227,
      "max": [
        1.0,
        1.0,
        1.0
      ],
      "min": [
        -1.0,
        -1.0,
        -1.0
      ],
      "type": "VEC3"
    },
    {
      "bufferView": 4,
      "componentType": 5126,
      "count": 7227,
      "max": [
        1.0,
        1.0,
        1.0,
        1.0
      ],
      "min": [
        -1.0,
        -1.0,
        -0.9999991655349731,
        -1.0
      ],
      "type": "VEC4"
    },
    {
      "bufferView": 2,
      "componentType": 5126,
      "count": 7227,
      "max": [
        0.99755859375,
        0.977874755859375
      ],
      "min": [
        3.0517578125e-05,
        0.0
      ],
      "type": "VEC2"
    },
    {
      "bufferView": 1,
      "componentType": 5125,
      "count": 25392,
      "type": "SCALAR"
    },
    {
      "bufferView": 3,
      "byteOffset": 173448,
      "componentType": 5126,
      "count": 254,
      "max": [
        94.75180053710938,
        147.13360595703125,
        276.2357482910156
      ],
      "min": [
        -94.75180053710938,
        67.87724304199219,
        -167.47042846679688
      ],
      "type": "VEC3"
    },
    {
      "bufferView": 3,
      "byteOffset": 176496,
      "componentType": 5126,
      "count": 254,
      "max": [
        0.9574216604232788,
        0.9257696866989136,
        1.0
      ],
      "min": [
        -0.9574216604232788,
        -0.5101352334022522,
        -0.38750696182250977
      ],
      "type": "VEC3"
    },
    {
      "bufferView": 2,
      "byteOffset": 57816,
      "componentType": 5126,
      "count": 254,
      "max": [
        1.0,
        0.89093017578125
      ],
      "min": [
        3.0517578125e-05,
        0.0
      ],
      "type": "VEC2"
    },
    {
      "bufferView": 1,
      "byteOffset": 101568,
      "componentType": 5125,
      "count": 1098,
      "type": "SCALAR"
    },
    {
      "bufferView": 3,
      "byteOffset": 179544,
      "componentType": 5126,
      "count": 162,
      "max": [
        98.61034393310547,
        73.36332702636719,
        -287.0953369140625
      ],
      "min": [
        -98.61034393310547,
        59.54444885253906,
        -293.3199462890625
      ],
      "type": "VEC3"
    },
    {
      "bufferView": 3,
      "byteOffset": 181488,
      "componentType": 5126,
      "count": 162,
      "max": [
        0.989326000213623,
        0.9893593788146973,
        -0.10856720805168152
      ],
      "min": [
        -0.989326000213623,
        -0.9893660545349121,
        -0.9939510822296143
      ],
      "type": "VEC3"
    },
    {
      "bufferView": 2,
      "byteOffset": 59848,
      "componentType": 5126,
      "count": 162,
      "max": [
        0.1689453125,
        0.53466796875
      ],
      "min": [
        3.0517578125e-05,
        0.0
      ],
      "type": "VEC2"
    },
    {
      "bufferView": 1,
      "byteOffset": 105960,
      "componentType": 5125,
      "count": 780,
      "type": "SCALAR"
    },
    {
      "bufferView": 3,
      "byteOffset": 183432,
      "componentType": 5126,
      "count": 2450,
      "max": [
        110.4426040649414,
        152.22415161132813,
        293.46807861328125
      ],
      "min": [
        -110.4426040649414,
        23.873268127441406,
        -288.9151306152344
      ],
      "type": "VEC3"
    },
    {
      "bufferView": 3,
      "byteOffset": 212832,
      "componentType": 5126,
      "count": 2450,
      "max": [
        0.9999729990959167,
        0.999931812286377,
        0.9999029636383057
      ],
      "min": [
        -0.999972939491272,
        -0.9999983310699463,
        -0.9994267225265503
      ],
      "type": "VEC3"
    },
    {
      "bufferView": 4,
      "byteOffset": 115632,
      "componentType": 5126,
      "count": 2450,
      "max": [
        1.0,
        0.9999497532844543,
        0.9999476671218872,
        1.0
      ],
      "min": [
        -0.9999268054962158,
        -0.9999015927314758,
        -0.9999995231628418,
        -1.0
      ],
      "type": "VEC4"
    },
    {
      "bufferView": 2,
      "byteOffset": 61144,
      "componentType": 5126,
      "count": 2450,
      "max": [
        0.99560546875,
        0.99139404296875
      ],
      "min": [
        0.0040283203125,
        0.0087890625
      ],
      "type": "VEC2"
    },
    {
      "bufferView": 1,
      "byteOffset": 109080,
      "componentType": 5125,
      "count": 9033,
      "type": "SCALAR"
    },
    {
      "bufferView": 3,
      "byteOffset": 242232,
      "componentType": 5126,
      "count": 1816,
      "max": [
        99.42412567138672,
        73.70101928710938,
        233.00192260742188
      ],
      "min": [
        -99.42411804199219,
        0.1746368408203125,
        -166.71380615234375
      ],
      "type": "VEC3"
    },
    {
      "bufferView": 3,
      "byteOffset": 264024,
      "componentType": 5126,
      "count": 1816,
      "max": [
        1.0,
        0.9643234610557556,
        0.9643229246139526
      ],
      "min": [
        -1.0,
        -0.9643203020095825,
        -0.9643240571022034
      ],
      "type": "VEC3"
    },
    {
      "bufferView": 4,
      "byteOffset": 154832,
      "componentType": 5126,
      "count": 1816,
      "max": [
        0.9769891500473022,
        0.9837918281555176,
        0.99710613489151,
        1.0
      ],
      "min": [
        -0.9769891500473022,
        -0.9762675762176514,
        -0.9998615384101868,
        -1.0
      ],
      "type": "VEC4"
    },
    {
      "bufferView": 2,
      "byteOffset": 80744,
      "componentType": 5126,
      "count": 1816,
      "max": [
        0.99365234375,
        0.99676513671875
      ],
      "min": [
        0.0103912353515625,
        0.00341796875
      ],
      "type": "VEC2"
    },
    {
      "bufferView": 1,
      "byteOffset": 145212,
      "componentType": 5125,
      "count": 6912,
      "type": "SCALAR"
    },
    {
      "bufferView": 5,
      "componentType": 5126,
      "count": 10,
      "max": [
        1.0,
        0.0,
        0.0,
        0.0,
        3.469446951953614e-18,
        1.0,
        1.0,
        0.0,
        0.0,
        0.0,
        1.0,
        0.0,
        87.56040954589844,
        196.23870849609375,
        0.0,
        1.0
      ],
      "min": [
        1.0,
        -5.551115123125783e-17,
        -3.469446951953614e-18,
        0.0,
        0.0,
        2.832769343193999e-16,
        0.0,
        0.0,
        -5.551115123125783e-17,
        -1.0,
        2.832769343193999e-16,
        0.0,
        -107.404541015625,
        -130.00088500976563,
        -118.15425872802734,
        1.0
      ],
      "type": "MAT4"
    },
    {
      "bufferView": 0,
      "componentType": 5123,
      "count": 7227,
      "type": "VEC4"
    },
    {
      "bufferView": 4,
      "byteOffset": 183888,
      "componentType": 5126,
      "count": 7227,
      "max": [
        1.0,
        0.0,
        0.0,
        0.0
      ],
      "min": [
        1.0,
        0.0,
        0.0,
        0.0
      ],
      "type": "VEC4"
    },
    {
      "bufferView": 0,
      "byteOffset": 57816,
      "componentType": 5123,
      "count": 254,
      "type": "VEC4"
    },
    {
      "bufferView": 4,
      "byteOffset": 299520,
      "componentType": 5126,
      "count": 254,
      "max": [
        1.0,
        0.0,
        0.0,
        0.0
      ],
      "min": [
        1.0,
        0.0,
        0.0,
        0.0
      ],
      "type": "VEC4"
    },
    {
      "bufferView": 0,
      "byteOffset": 59848,
      "componentType": 5123,
      "count": 162,
      "type": "VEC4"
    },
    {
      "bufferView": 4,
      "byteOffset": 303584,
      "componentType": 5126,
      "count": 162,
      "max": [
        1.0,
        0.0,
        0.0,
        0.0
      ],
      "min": [
        1.0,
        0.0,
        0.0,
        0.0
      ],
      "type": "VEC4"
    },
    {
      "bufferView": 0,
      "byteOffset": 61144,
      "componentType": 5123,
      "count": 2450,
      "type": "VEC4"
    },
    {
      "bufferView": 4,
      "byteOffset": 306176,
      "componentType": 5126,
      "count": 2450,
      "max": [
        1.0,
        0.0,
        0.0,
        0.0
      ],
      "min": [
        1.0,
        0.0,
        0.0,
        0.0
      ],
      "type": "VEC4"
    },
    {
      "bufferView": 0,
      "byteOffset": 80744,
      "componentType": 5123,
      "count": 1816,
      "type": "VEC4"
    },
    {
      "bufferView": 4,
      "byteOffset": 345376,
      "componentType": 5126,
      "count": 1816,
      "max": [
        1.0,
        0.0,
        0.0,
        0.0
      ],
      "min": [
        1.0,
        0.0,
        0.0,
        0.0
      ],
      "type": "VEC4"
    }
  ],
  "asset": {
    "extras": {
      "author": "ElectroNick (https://sketchfab.com/ElectroNick)",
      "license": "CC-BY-4.0 (http://creativecommons.org/licenses/by/4.0/)",
      "source": "https://sketchfab.com/3d-models/car-impala-chevy-182cc7092d17474e8cc791aef04a8fb3",
      "title": "Car Impala Chevy"
    },
    "generator": "Sketchfab-12.65.0",
    "version": "2.0"
  },
  "bufferViews": [
    {
      "buffer": 0,
      "byteLength": 95272,
      "byteStride": 8,
      "name": "shortBufferViews",
      "target": 34962
    },
    {
      "buffer": 0,
      "byteLength": 172860,
      "byteOffset": 95272,
      "name": "floatBufferViews",
      "target": 34963
    },
    {
      "buffer": 0,
      "byteLength": 95272,
      "byteOffset": 268132,
      "byteStride": 8,
      "name": "floatBufferViews",
      "target": 34962
    },
    {
      "buffer": 0,
      "byteLength": 285816,
      "byteOffset": 363404,
      "byteStride": 12,
      "name": "floatBufferViews",
      "target": 34962
    },
    {
      "buffer": 0,
      "byteLength": 374432,
      "byteOffset": 649220,
      "byteStride": 16,
      "name": "floatBufferViews",
      "target": 34962
    },
    {
      "buffer": 0,
      "byteLength": 640,
      "byteOffset": 1023652,
      "name": "floatBufferViews"
    }
  ],
  "buffers": [
    {
      "byteLength": 1024292,
      "uri": "scene.bin"
    }
  ],
  "extensionsRequired": [
    "KHR_materials_pbrSpecularGlossiness"
  ],
  "extensionsUsed": [
    "KHR_materials_pbrSpecularGlossiness"
  ],
  "images": [
    {
      "uri": "textures/M_chevy_impala_01_B_inst_diffuse.png"
    },
    {
      "uri": "textures/M_chevy_impala_01_B_inst_normal.png"
    },
    {
      "uri": "textures/M_chevy_impala_01_A_inst_diffuse.png"
    },
    {
      "uri": "textures/M_chevy_impala_01_A_inst_normal.png"
    },
    {
      "uri": "textures/M_chevy_impala_01_C_inst_diffuse.png"
    },
    {
      "uri": "textures/M_chevy_impala_01_C_inst_normal.png"
    }
  ],
  "materials": [
    {
      "doubleSided": true,
      "extensions": {
        "KHR_materials_pbrSpecularGlossiness": {
          "diffuseFactor": [
            0.8225334257519654,
            0.8225334257519654,
            0.8225334257519654,
            1.0
          ],
          "diffuseTexture": {
            "index": 0
          },
          "glossinessFactor": 0.4,
          "specularFactor": [
            0.0,
            0.0,
            0.0
          ]
        }
      },
      "name": "M_chevy_impala_01_B_inst",
      "normalTexture": {
        "index": 1
      }
    },
    {
      "alphaMode": "BLEND",
      "doubleSided": true,
      "extensions": {
        "KHR_materials_pbrSpecularGlossiness": {
          "diffuseFactor": [
            1.0,
            1.0,
            1.0,
            0.019950568192182112
          ],
          "glossinessFactor": 0.4,
          "specularFactor": [
            0.0,
            0.0,
            0.0
          ]
        }
      },
      "name": "M_scratched_glass_seamless_inst"
    },
    {
      "doubleSided": true,
      "extensions": {
        "KHR_materials_pbrSpecularGlossiness": {
          "diffuseFactor": [
            0.8,
            0.8,
            0.8,
            1.0
          ],
          "glossinessFactor": 0.4,
          "specularFactor": [
            0.0,
            0.0,
            0.0
          ]
        }
      },
      "name": "M_scratched_glass_seamless_inst.1"
    },
    {
      "doubleSided": true,
      "extensions": {
        "KHR_materials_pbrSpecularGlossiness": {
          "diffuseFactor": [
            1.0,
            1.0,
            1.0,
            1.0
          ],
          "diffuseTexture": {
            "index": 2
          },
          "glossinessFactor": 0.4,
          "specularFactor": [
            0.0,
            0.0,
            0.0
          ]
        }
      },
      "name": "M_chevy_impala_01_A_inst",
      "normalTexture": {
        "index": 3
      }
    },
    {
      "doubleSided": true,
      "extensions": {
        "KHR_materials_pbrSpecularGlossiness": {
          "diffuseFactor": [
            1.0,
            1.0,
            1.0,
            1.0
          ],
          "diffuseTexture": {
            "index": 4
          },
          "glossinessFactor": 0.4,
          "specularFactor": [
            0.0,
            0.0,
            0.0
          ]
        }
      },
      "name": "M_chevy_impala_01_C_inst",
      "normalTexture": {
        "index": 5
      }
    }
  ],
  "meshes": [
    {
      "name": "0000_car_Impala_Chevy_bind_M_chevy_impala_01_B_inst_0",
      "primitives": [
        {
          "attributes": {
            "JOINTS_0": 24,
            "NORMAL": 1,
            "POSITION": 0,
            "TANGENT": 2,
            "TEXCOORD_0": 3,
            "TEXCOORD_1": 3,
            "WEIGHTS_0": 25
          },
          "indices": 4,
          "material": 0,
          "mode": 4
        }
      ]
    },
    {
      "name": "0001_car_Impala_Chevy_bind_M_scratched_glass_seamless_inst_0",
      "primitives": [
        {
          "attributes": {
            "JOINTS_0": 26,
            "NORMAL": 6,
            "POSITION": 5,
            "TEXCOORD_0": 7,
            "WEIGHTS_0": 27
          },
          "indices": 8,
          "material": 1,
          "mode": 4
        }
      ]
    },
    {
      "name": "0002_car_Impala_Chevy_bind_M_scratched_glass_seamless_inst.1_0",
      "primitives": [
        {
          "attributes": {
            "JOINTS_0": 28,
            "NORMAL": 10,
            "POSITION": 9,
            "TEXCOORD_0": 11,
            "WEIGHTS_0": 29
          },
          "indices": 12,
          "material": 2,
          "mode": 4
        }
      ]
    },
    {
      "name": "0003_car_Impala_Chevy_bind_M_chevy_impala_01_A_inst_0",
      "primitives": [
        {
          "attributes": {
            "JOINTS_0": 30,
            "NORMAL": 14,
            "POSITION": 13,
            "TANGENT": 15,
            "TEXCOORD_0": 16,
            "TEXCOORD_1": 16,
            "WEIGHTS_0": 31
          },
          "indices": 17,
          "material": 3,
          "mode": 4
        }
      ]
    },
    {
      "name": "0004_car_Impala_Chevy_bind_M_chevy_impala_01_C_inst_0",
      "primitives": [
        {
          "attributes": {
            "JOINTS_0": 32,
            "NORMAL": 19,
            "POSITION": 18,
            "TANGENT": 20,
            "TEXCOORD_0": 21,
            "TEXCOORD_1": 21,
            "WEIGHTS_0": 33
          },
          "indices": 22,
          "material": 4,
          "mode": 4
        }
      ]
    }
  ],
  "nodes": [
    {
      "children": [
        1
      ],
      "matrix": [
        1.0,
        0.0,
        0.0,
        0.0,
        0.0,
        2.220446049250313e-16,
        -1.0,
        0.0,
        0.0,
        1.0,
        2.220446049250313e-16,
        0.0,
        0.0,
        0.0,
        0.0,
        1.0
      ],
      "name": "Sketchfab_model"
    },
    {
      "children": [
        2
      ],
      "matrix": [
        1.0,
        0.0,
        0.0,
        0.0,
        0.0,
        0.0,
        1.0,
        0.0,
        0.0,
        -1.0,
        0.0,
        0.0,
        0.0,
        0.0,
        0.0,
        1.0
      ],
      "name": "803efe7f6365405d9f68303e61918fd5.fbx"
    },
    {
      "children": [
        3
      ],
      "name": "RootNode"
    },
    {
      "children": [
        4,
        6,
        8,
        10,
        12,
        14,
        5,
        7,
        9,
        11,
        13
      ],
      "name": "Object_3"
    },
    {
      "children": [
        15
      ],
      "name": "_rootJoint"
    },
    {
      "matrix": [
        1.0,
        -5.7777898331617076e-33,
        -9.828143329809672e-34,
        0.0,
        5.7777898331617076e-33,
        1.0,
        0.0,
        0.0,
        9.828143329809672e-34,
        -5.678494660983037e-66,
        1.0,
        0.0,
        6.162975822039155e-31,
        0.0,
        -4.733165431326071e-30,
        1.0
      ],
      "name": "Object_5"
    },
    {
      "mesh": 0,
      "name": "Object_6",
      "skin": 0
    },
    {
      "matrix": [
        1.0,
        -5.7777898331617076e-33,
        -9.828143329809672e-34,
        0.0,
        5.7777898331617076e-33,
        1.0,
        0.0,
        0.0,
        9.828143329809672e-34,
        -5.678494660983037e-66,
        1.0,
        0.0,
        6.162975822039155e-31,
        0.0,
        -4.733165431326071e-30,
        1.0
      ],
      "name": "Object_7"
    },
    {
      "mesh": 1,
      "name": "Object_8",
      "skin": 0
    },
    {
      "matrix": [
        1.0,
        -5.7777898331617076e-33,
        -9.828143329809672e-34,
        0.0,
        5.7777898331617076e-33,
        1.0,
        0.0,
        0.0,
        9.828143329809672e-34,
        -5.678494660983037e-66,
        1.0,
        0.0,
        6.162975822039155e-31,
        0.0,
        -4.733165431326071e-30,
        1.0
      ],
      "name": "Object_9"
    },
    {
      "mesh": 2,
      "name": "Object_10",
      "skin": 0
    },
    {
      "matrix": [
        1.0,
        -5.7777898331617076e-33,
        -9.828143329809672e-34,
        0.0,
        5.7777898331617076e-33,
        1.0,
        0.0,
        0.0,
        9.828143329809672e-34,
        -5.678494660983037e-66,
        1.0,
        0.0,
        6.162975822039155e-31,
        0.0,
        -4.733165431326071e-30,
        1.0
      ],
      "name": "Object_11"
    },
    {
      "mesh": 3,
      "name": "Object_12",
      "skin": 0
    },
    {
      "matrix": [
        1.0,
        0.0,
        0.0,
        0.0,
        0.0,
        1.0,
        0.0,
        0.0,
        0.0,
        0.0,
        1.0,
        0.0,
        0.0,
        -4.263256414560601e-14,
        0.0,
        1.0
      ],
      "name": "Object_13"
    },
    {
      "mesh": 4,
      "name": "Object_14",
      "skin": 0
    },
    {
      "children": [
        16
      ],
      "name": "car_Impala_Chevy_bind_00",
      "rotation": [
        -0.7071068286895752,
        -0.0,
        0.0,
        0.7071068286895752
      ]
    },
    {
      "children": [
        17,
        18,
        19,
        20,
        21,
        22,
        23
      ],
      "name": "Car_JNT_01",
      "translation": [
        0.0,
        1.3172150070445317e-14,
        29.66104507446289
      ]
    },
    {
      "name": "wheel_FR_JNT_02",
      "translation": [
        -87.56040954589844,
        -196.23870849609375,
        7.276786804199219
      ]
    },
    {
      "name": "wheel_FL_JNT_03",
      "translation": [
        87.56041717529297,
        -196.23870849609375,
        7.276786804199219
      ]
    },
    {
      "name": "wheel_BL_JNT_04",
      "translation": [
        87.56040954589844,
        130.00088500976563,
        7.276786804199219
      ]
    },
    {
      "name": "wheel_BR_JNT_05",
      "translation": [
        -87.56040954589844,
        130.00088500976563,
        7.276786804199219
      ]
    },
    {
      "name": "Door_L_JNT_06",
      "translation": [
        107.404541015625,
        -107.64321899414063,
        35.45768356323242
      ]
    },
    {
      "name": "Gearbox_JNT_07",
      "translation": [
        3.95743465423584,
        -88.62413787841797,
        21.35702133178711
      ]
    },
    {
      "name": "steering_wheel_JNT_08",
      "rotation": [
        0.20785705745220184,
        0.0,
        0.0,
        0.9781593084335327
      ],
      "translation": [
        48.63666534423828,
        -71.25751495361328,
        67.95211791992188
      ]
    }
  ],
  "samplers": [
    {
      "magFilter": 9729,
      "minFilter": 9987,
      "wrapS": 10497,
      "wrapT": 10497
    }
  ],
  "scene": 0,
  "scenes": [
    {
      "name": "Sketchfab_Scene",
      "nodes": [
        0
      ]
    }
  ],
  "skins": [
    {
      "inverseBindMatrices": 23,
      "joints": [
        4,
        15,
        16,
        17,
        18,
        19,
        20,
        21,
        22,
        23
      ],
      "skeleton": 4
    }
  ],
  "textures": [
    {
      "sampler": 0,
      "source": 0
    },
    {
      "sampler": 0,
      "source": 1
    },
    {
      "sampler": 0,
      "source": 2
    },
    {
      "sampler": 0,
      "source": 3
    },
    {
      "sampler": 0,
      "source": 4
    },
    {
      "sampler": 0,
      "source": 5
    }
  ]
}
