{
  "accessors": [
    {
      "bufferView": 2,
      "componentType": 5126,
      "count": 65532,
      "max": [
        1.6124720573425293,
        -1.2579901218414307,
        4.720923900604248
      ],
      "min": [
        -3.696136474609375,
        -4.338095664978027,
        2.436929941177368
      ],
      "type": "VEC3"
    },
    {
      "bufferView": 2,
      "byteOffset": 786384,
      "componentType": 5126,
      "count": 65532,
      "max": [
        0.9999368786811829,
        0.9999447464942932,
        1.0
      ],
      "min": [
        -0.9999189376831055,
        -0.9999913573265076,
        -0.9999999403953552
      ],
      "type": "VEC3"
    },
    {
      "bufferView": 1,
      "componentType": 5126,
      "count": 65532,
      "max": [
        0.9993789792060852,
        0.3728030025959015
      ],
      "min": [
        0.00024399999529123306,
        0.0006689999718219042
      ],
      "type": "VEC2"
    },
    {
      "bufferView": 0,
      "componentType": 5125,
      "count": 292950,
      "type": "SCALAR"
    },
    {
      "bufferView": 2,
      "byteOffset": 1572768,
      "componentType": 5126,
      "count": 52077,
      "max": [
        1.6124720573425293,
        -1.2574702501296997,
        4.382216930389404
      ],
      "min": [
        -3.696136474609375,
        -4.338095664978027,
        2.4369289875030518
      ],
      "type": "VEC3"
    },
    {
      "bufferView": 2,
      "byteOffset": 2197692,
      "componentType": 5126,
      "count": 52077,
      "max": [
        0.9991876482963562,
        0.9999004006385803,
        1.0
      ],
      "min": [
        -0.9999827742576599,
        -0.9999869465827942,
        -1.0
      ],
      "type": "VEC3"
    },
    {
      "bufferView": 1,
      "byteOffset": 524256,
      "componentType": 5126,
      "count": 52077,
      "max": [
        0.9996190071105957,
        0.3728030025959015
      ],
      "min": [
        0.00024399999529123306,
        0.0007750000222586095
      ],
      "type": "VEC2"
    },
    {
      "bufferView": 0,
      "byteOffset": 1171800,
      "componentType": 5125,
      "count": 196050,
      "type": "SCALAR"
    }
  ],
  "asset": {
    "extras": {
      "author": "smearballs (https://sketchfab.com/smearballs)",
      "license": "CC-BY-4.0 (http://creativecommons.org/licenses/by/4.0/)",
      "source": "https://sketchfab.com/3d-models/converse-shoe-4237f51cebe048119420c8a44be97b4f",
      "title": "CONVERSE SHOE"
    },
    "generator": "Sketchfab-12.68.0",
    "version": "2.0"
  },
  "bufferViews": [
    {
      "buffer": 0,
      "byteLength": 1956000,
      "name": "floatBufferViews",
      "target": 34963
    },
    {
      "buffer": 0,
      "byteLength": 940872,
      "byteOffset": 1956000,
      "byteStride": 8,
      "name": "floatBufferViews",
      "target": 34962
    },
    {
      "buffer": 0,
      "byteLength": 2822616,
      "byteOffset": 2896872,
      "byteStride": 12,
      "name": "floatBufferViews",
      "target": 34962
    }
  ],
  "buffers": [
    {
      "byteLength": 5719488,
      "uri": "scene.bin"
    }
  ],
  "extensionsUsed": [
    "KHR_materials_unlit"
  ],
  "images": [
    {
      "uri": "textures/model_Material_u1_v1_baseColor.jpeg"
    }
  ],
  "materials": [
    {
      "doubleSided": true,
      "extensions": {
        "KHR_materials_unlit": {}
      },
      "name": "model_Material_u1_v1",
      "pbrMetallicRoughness": {
        "baseColorTexture": {
          "index": 0
        },
        "metallicFactor": 0.0
      }
    }
  ],
  "meshes": [
    {
      "name": "Object_0",
      "primitives": [
        {
          "attributes": {
            "NORMAL": 1,
            "POSITION": 0,
            "TEXCOORD_0": 2
          },
          "indices": 3,
          "material": 0,
          "mode": 4
        }
      ]
    },
    {
      "name": "Object_1",
      "primitives": [
        {
          "attributes": {
            "NORMAL": 5,
            "POSITION": 4,
            "TEXCOORD_0": 6
          },
          "indices": 7,
          "material": 0,
          "mode": 4
        }
      ]
    }
  ],
  "nodes": [
    {
      "children": [
        1
      ],
      "matrix": [
        0.26802870631217957,
        0.0,
        0.0,
        0.0,
        0.0,
        5.951432820165516e-17,
        -0.26802870631217957,
        0.0,
        0.0,
        0.26802870631217957,
        5.951432820165516e-17,
        0.0,
        0.0,
        0.0,
        0.0,
        1.0
      ],
      "name": "Sketchfab_model"
    },
    {
      "children": [
        2,
        3
      ],
      "name": "model.obj.cleaner.materialmerger.gles"
    },
    {
      "mesh": 0,
      "name": "Object_2"
    },
    {
      "mesh": 1,
      "name": "Object_3"
    }
  ],
  "samplers": [
    {
      "magFilter": 9729,
      "minFilter": 9987,
      "wrapS": 10497,
      "wrapT": 10497
    }
  ],
  "scene": 0,
  "scenes": [
    {
      "name": "Sketchfab_Scene",
      "nodes": [
        0
      ]
    }
  ],
  "textures": [
    {
      "sampler": 0,
      "source": 0
    }
  ]
}
